<svg height="64" width="64" xmlns="http://www.w3.org/2000/svg" xmlns:xlink="http://www.w3.org/1999/xlink"><linearGradient id="a"><stop offset="0"/><stop offset="1" stop-opacity="0"/></linearGradient><radialGradient id="b" cx="4.992979" cy="43.5" gradientTransform="matrix(2.003784 0 0 1.4 27.98813 -17.4)" gradientUnits="userSpaceOnUse" r="2.5" xlink:href="#a"/><radialGradient id="c" cx="4.992979" cy="43.5" gradientTransform="matrix(2.003784 0 0 1.4 -20.01187 -104.4)" gradientUnits="userSpaceOnUse" r="2.5" xlink:href="#a"/><linearGradient id="d" gradientUnits="userSpaceOnUse" x1="25.058096" x2="25.058096" y1="47.027729" y2="39.999443"><stop offset="0" stop-opacity="0"/><stop offset=".5"/><stop offset="1" stop-opacity="0"/></linearGradient><radialGradient id="e" cx="10" cy="9" gradientTransform="matrix(-3.3333333 .00000001 0 -3.1666667 44.333333 37.5)" gradientUnits="userSpaceOnUse" r="30"><stop offset="0" stop-color="#cdf87e"/><stop offset=".26238" stop-color="#a2e34f"/><stop offset=".66093999" stop-color="#68b723"/><stop offset="1" stop-color="#1d7e0d"/></radialGradient><linearGradient id="f" gradientUnits="userSpaceOnUse" x1="27" x2="27" y1="16" y2="62"><stop offset="0" stop-color="#fff" stop-opacity="0"/><stop offset=".02222222" stop-color="#fff" stop-opacity="0"/><stop offset=".06666667" stop-color="#fff" stop-opacity=".929412"/><stop offset=".12083333" stop-color="#fff" stop-opacity=".294118"/><stop offset=".93478262" stop-color="#fff" stop-opacity=".169935"/><stop offset="1" stop-color="#fff"/></linearGradient><linearGradient id="g" gradientTransform="matrix(.75477677 0 0 .75022361 -49.924888 23.459353)" gradientUnits="userSpaceOnUse" x1="107.05136" x2="107.05136" y1="-23.105574" y2="-5.777408"><stop offset="0" stop-color="#fff"/><stop offset=".40000001" stop-color="#fff" stop-opacity=".235294"/><stop offset=".80000001" stop-color="#fff" stop-opacity=".156863"/><stop offset="1" stop-color="#fff" stop-opacity=".392157"/></linearGradient><linearGradient id="h" gradientTransform="matrix(.75477677 0 0 .75022361 -21.862388 50.459353)" gradientUnits="userSpaceOnUse" x1="107.05136" x2="107.05136" y1="-24.93836" y2="-5.777408"><stop offset="0" stop-color="#fff"/><stop offset=".28695652" stop-color="#fff" stop-opacity=".045752"/><stop offset="1" stop-color="#fff" stop-opacity="0"/></linearGradient><g opacity=".3" transform="matrix(.55294861 0 0 .5714286 25.735257 36.642856)"><path d="m38 40h5v7h-5z" fill="url(#b)"/><path d="m-10-47h5v7h-5z" fill="url(#c)" transform="scale(-1)"/><path d="m10 40h28v7.000001h-28z" fill="url(#d)"/></g><g opacity=".3" transform="matrix(.55992067 0 0 .5714286 -.299603 36.642856)"><path d="m38 40h5v7h-5z" fill="url(#b)"/><path d="m-10-47h5v7h-5z" fill="url(#c)" transform="scale(-1)"/><path d="m10 40h28v7.000001h-28z" fill="url(#d)"/></g><path d="m26 3.5c-4.142136 0-7.5 3.3578644-7.5 7.5.0027 2.68565 1.441216 5.164869 3.771484 6.5h-16.771484c-1.108 0-2 .892-2 2v14.771484c1.3351314-2.330268 3.8143495-3.768781 6.5-3.771484 4.142136 0 7.5 3.357864 7.5 7.5s-3.357864 7.5-7.5 7.5c-2.6868642-.0039-5.1663653-1.444819-6.5-3.777344v17.777344c0 1.108.892 2 2 2h16.771484c-2.330268-1.335131-3.768781-3.81435-3.771484-6.5 0-4.142136 3.357864-7.5 7.5-7.5s7.5 3.357864 7.5 7.5c-.0039 2.686864-1.444819 5.166365-3.777344 6.5h15.777344c1.108 0 2-.892 2-2v-17.777344c1.333635 2.332525 3.813136 3.773437 6.5 3.777344 4.142136 0 7.5-3.357864 7.5-7.5s-3.357864-7.5-7.5-7.5c-2.68565.0027-5.164869 1.441216-6.5 3.771484v-14.771484c0-1.108-.892-2-2-2h-15.777344c2.332525-1.333635 3.773437-3.813136 3.777344-6.5 0-4.1421356-3.357864-7.5-7.5-7.5z" fill="url(#e)" stroke="#0f5a00" stroke-linejoin="round" stroke-opacity=".498039"/><g fill="none"><path d="m23.5 18.5h-18c-.554 0-1 .446-1 1v12.03125c1.5344012-1.307961 3.4837812-2.027903 5.5-2.03125 4.69442 0 8.5 3.80558 8.5 8.5s-3.80558 8.5-8.5 8.5c-2.0147381-.000076-3.9639473-.715801-5.5-2.019531v15.019531c0 .554.446 1 1 1h14.03125c-1.307961-1.534401-2.027903-3.483781-2.03125-5.5 0-4.69442 3.80558-8.5 8.5-8.5s8.5 3.80558 8.5 8.5c-.000076 2.014738-.715801 3.963947-2.019531 5.5h13.019531c.554 0 1-.446 1-1v-19h1.5.002c1.008972 2.421533 3.374672 3.999193 5.998 4 3.589851 0 6.5-2.910149 6.5-6.5s-2.910149-6.5-6.5-6.5c-2.622397.0027-4.986316 1.580949-5.994141 4.001953-.002127-.000013-.003728-.001953-.005859-.001953h-1.5v-16c0-.554-.446-1-1-1h-17l-.04847-2.132494-4.95153.069994z" stroke="url(#f)" stroke-linejoin="round" stroke-opacity=".498039"/><path d="m24.008475 17.059322c-.371197 0-1.4284-.286859-2.604669-1.463128s-1.903806-2.801269-1.903806-4.596194c0-3.5898509 2.910149-6.5 6.5-6.5s6.5 2.9101491 6.5 6.5c0 1.794925-.727537 3.419925-1.903806 4.596194s-2.308332 1.400442-2.630677 1.400442" opacity=".6" stroke="url(#g)"/><path d="m48.005859 35.501953c.122646-.457722.284178-.921878 1.460447-2.098147s2.801269-1.903806 4.596194-1.903806c3.589851 0 6.5 2.910149 6.5 6.5s-2.910149 6.5-6.5 6.5c-1.794925 0-3.419925-.727537-4.596194-1.903806s-1.34449-1.649036-1.464306-2.096194" opacity=".3" stroke="url(#h)"/><path d="m4.5625 44.36669c3.666633 2.849843 8.551928 3.41179 13-2.5" opacity=".2" stroke="#fff" stroke-linecap="round"/></g></svg>