<svg t="1687269843716" class="icon" viewBox="0 0 1024 1024" version="1.1" xmlns="http://www.w3.org/2000/svg" p-id="5085" width="200" height="200"><path d="M512 512.002m-255.724 0a255.724 255.724 0 1 0 511.448 0 255.724 255.724 0 1 0-511.448 0Z" fill="#29E088" p-id="5086"></path><path d="M512 512.002m-255.724 0a255.724 255.724 0 1 0 511.448 0 255.724 255.724 0 1 0-511.448 0Z" fill="#29E088" p-id="5087"></path><path d="M329.158 508.818c26.56 0.33 50.38-16.2 59.444-41.168 17.614-48.526 63.226-84.182 117.18-86.68a132.46 132.46 0 0 1 23.68 1.014c29.272 3.91 56.99-14.606 65.616-42.85l0.458-1.498c11.23-36.858-13.524-74.656-51.76-79.402a257.972 257.972 0 0 0-31.534-1.958c-111.27-0.108-205.548 69.842-240.972 168.754-14.502 40.486 14.886 83.254 57.888 83.788z" fill="#79FF79" p-id="5088"></path><path d="M361.636 432.012l1.234 0.33c20.936 5.584 43.194-0.29 58.882-15.238a131.9 131.9 0 0 1 40.814-26.53c23.094-9.49 38.548-31.52 38.548-56.488v-2.08c0-43.808-44.286-73.634-84.946-57.33a254.54 254.54 0 0 0-82.276 53.356c-34.436 33.32-18.548 91.614 27.744 103.98z" fill="#C2FFC2" p-id="5089"></path><path d="M767.71 511.996c0 141.228-114.468 255.722-255.722 255.722-113.684 0-210.036-74.164-243.29-176.782 41.618 62.894 113.002 104.386 194.09 104.386 128.416 0 232.524-104.108 232.524-232.55 0-81.062-41.492-152.448-104.412-194.066 102.622 33.23 176.81 129.606 176.81 243.29z" fill="#0CC166" p-id="5090"></path><path d="M955.414 256c-20.154-34.91-73.52-69.754-213.25-37.398-36.738 8.484-76.422 20.924-117.812 36.746v26.94a255.426 255.426 0 0 1 53.742 35.406c28.48-10 55.812-18.062 81.472-23.986 92.594-21.43 125.038-6.19 129.09 0.836s1.036 42.728-63.83 112.196c-61.274 65.636-153.56 135.588-259.876 196.972s-213.028 106.338-300.514 126.58c-92.594 21.452-125.038 6.188-129.09-0.838s-1.036-42.73 63.83-112.196c17.95-19.228 38.544-38.808 61.384-58.456a257.922 257.922 0 0 1-4.272-46.804c0-8.57 0.438-17.036 1.264-25.392h-30.864c-31.614 26.084-59.87 52.31-83.874 78.032C44.954 669.48 48.434 733.09 68.586 768c14.516 25.152 46.232 50.24 115.06 50.24 26.718 0 59.072-3.788 98.188-12.84 94.688-21.916 208.932-69.842 321.658-134.928 112.726-65.084 211.354-140.058 277.696-211.112 97.858-104.84 94.378-168.45 74.226-203.36z" fill="#FFC751" p-id="5091"></path><path d="M688.76 233.06c-20.86 6.406-42.396 13.884-64.408 22.294v26.93a255.582 255.582 0 0 1 53.748 35.416c23.74-8.34 46.68-15.32 68.5-20.86-27.06-9.52-48.6-33.36-57.84-63.78z" fill="#FFAF40" p-id="5092"></path><path d="M352.552 747.934c-4.84-21.598-26.964-34.484-48.192-28.208-13.686 4.046-27.018 7.582-39.924 10.568-16.916 3.92-31.822 6.612-44.914 8.354-20.738 2.76-35.38 21.64-32.862 42.408l0.094 0.768c2.544 21.034 21.756 35.944 42.764 33.202 15.93-2.08 33.324-5.23 52.318-9.626 14.37-3.326 29.196-7.258 44.396-11.758 19.278-5.708 30.886-25.332 26.49-44.95zM923.054 345.716c-17.458-14.176-43.304-10.22-55.752 8.51-9.76 14.686-23.458 32.146-42.476 52.514-13.44 14.398-28.386 29.002-44.642 43.678-15.486 13.98-16.91 37.868-3.134 53.536l0.508 0.578c14.092 16.02 38.57 17.254 54.414 2.962 17.892-16.138 34.37-32.234 49.218-48.136 21.258-22.776 37.73-43.604 50.288-62.614 10.79-16.334 7.394-38.186-7.802-50.526z" fill="#FFE059" p-id="5093"></path><path d="M816.984 469.21c15.028 15.498 39.862 15.408 54.9-0.08a694.318 694.318 0 0 0 9.304-9.77c9.258-9.918 17.608-19.466 25.122-28.658 14.392-17.602 10.284-43.818-8.67-56.374-16.422-10.88-38.47-7.68-50.966 7.55-6.358 7.748-13.604 16.034-21.85 24.864a633.012 633.012 0 0 1-8.438 8.86c-14.334 14.764-14.266 38.282 0.06 53.054z" fill="#FFF370" p-id="5094"></path><path d="M257.546 486.608h-30.828c-23.39 19.294-44.976 38.658-64.318 57.852 18.32 16.64 38.14 33.32 59.26 49.88 12.08-11.78 25.08-23.64 38.9-35.54-2.8-15.18-4.28-30.8-4.28-46.8 0-8.57 0.438-17.036 1.266-25.392zM460.34 658.78c-30.2 14.36-59.88 27.12-88.58 38.06 7 4.2 14.08 8.34 21.2 12.46a1570.59 1570.59 0 0 0 64.76 35.42c28.98-12.76 58.5-27 88.16-42.54-28.14-13.08-56.8-27.6-85.54-43.4z" fill="#FFAF40" p-id="5095"></path><path d="M881.188 564.64c-16.21-17.378-34.382-34.976-54.204-52.64-18.656 16.584-38.786 33.214-60.174 49.712 21.496 18.656 40.968 37.266 58.014 55.548 64.864 69.468 67.882 105.17 63.83 112.196-4.054 7.026-36.496 22.29-129.09 0.838-87.484-20.242-194.196-65.194-300.512-126.58-106.316-61.384-198.602-131.336-259.876-196.972-64.864-69.468-67.882-105.17-63.83-112.196 2.512-4.362 15.88-11.85 47.686-11.85 19.558 0 46.122 2.842 81.406 11.012 25.66 5.924 52.97 13.986 81.428 23.964a256.156 256.156 0 0 1 45.576-31.188v-34.24c-38.43-14.35-75.3-25.718-109.604-33.64C142.108 186.268 88.74 221.09 68.586 256c-20.152 34.91-23.632 98.52 74.226 203.36 66.34 71.054 164.97 146.028 277.694 211.112 112.726 65.084 226.97 113.012 321.658 134.928 39.118 9.052 71.45 12.84 98.19 12.84 68.806 0 100.544-25.086 115.06-50.24 20.152-34.91 23.632-98.52-74.226-203.36z" fill="#FF993A" p-id="5096"></path><path d="M391.44 252.236c-23.918-8.934-47.232-16.718-69.7-23.216-6.3 23.64-11.86 48.88-16.62 75.46 13.26 3.92 26.88 8.32 40.74 13.2a256 256 0 0 1 45.58-31.2z" fill="#F97C15" p-id="5097"></path><path d="M419.648 625.6c11.36-17.794 6.138-41.48-11.72-52.74-84.64-53.372-157.534-111.252-208.754-166.118-15.474-16.574-27.426-31.22-36.6-44.016-12.714-17.732-37.68-21.152-54.736-7.544l-0.614 0.49c-15.872 12.658-18.974 35.502-7.176 52.024 11.414 15.986 25.514 33.184 42.764 51.666 55.574 59.522 133.81 121.796 224.008 178.702 17.712 11.174 41.144 5.838 52.412-11.812z" fill="#FFAF40" p-id="5098"></path><path d="M285.492 537.488l0.504-0.584c14.05-16.312 11.778-40.946-4.912-54.544-31.126-25.358-58.738-50.798-81.91-75.618a568.998 568.998 0 0 1-10.418-11.462c-13.162-14.896-35.51-17.21-51.454-5.338l-0.636 0.474c-17.908 13.352-20.48 39.144-5.702 55.896a630.784 630.784 0 0 0 11.846 13.048c25.476 27.286 55.72 55.15 89.692 82.81 16.016 13.038 39.514 10.964 52.99-4.682z" fill="#FFC751" p-id="5099"></path><path d="M721.44 720.26c-3.28 26.6-7.28 52.28-11.98 76.74-23.74-6.62-48.46-14.72-73.9-24.12 4.52-24.82 8.3-50.96 11.28-78.12 25.74 9.98 50.72 18.54 74.6 25.5z" fill="#F97C15" p-id="5100"></path><path d="M651.002 165.96C609.154 28.786 552.306 0 512 0s-97.154 28.786-139.002 165.96c-13.942 45.724-24.8 98.652-32.246 156.138a254.87 254.87 0 0 1 86.076-51.252c5.572-29.602 12.224-57.244 19.91-82.396 27.73-90.898 57.134-111.36 65.26-111.36 8.128 0 37.532 20.462 65.26 111.36 26.21 85.876 40.638 200.782 40.638 323.552s-14.426 237.674-40.638 323.552c-27.73 90.898-57.134 111.36-65.26 111.36-8.128 0-37.532-20.462-65.26-111.36-7.312-23.898-13.678-50.064-19.074-78.014-24.976 10.264-49.446 19.382-73.146 27.246 5.374 25.968 11.542 50.504 18.48 73.256C414.846 995.214 471.694 1024 512 1024s97.154-28.786 139.002-165.96c28.368-92.968 43.984-215.87 43.984-346.04s-15.616-253.07-43.984-346.04z" fill="#FE255F" p-id="5101"></path><path d="M636.506 764.004l0.768 0.082c20.198 2.162 38.57-11.924 41.682-31.998 10.48-67.59 16.03-142.544 16.03-220.09 0-105.466-10.254-206.156-29.234-290.022-4.84-21.39-26.812-34.2-47.872-28.082l-0.74 0.216c-19.324 5.612-31 25.284-26.548 44.91 17.726 78.14 27.306 172.948 27.306 272.98 0 73.83-5.224 144.806-15.086 208.34-3.336 21.5 12.06 41.358 33.694 43.664z" fill="#FC709B" p-id="5102"></path><path d="M690.094 387.926c-2.994-37.328-7.338-73.308-12.954-107.306-3.62-21.914-25.038-36.158-46.626-30.934l-0.75 0.182c-19.464 4.708-31.9 23.65-28.634 43.408 5.27 31.878 9.346 65.748 12.158 100.998 1.706 21.394 20.756 37.212 42.088 34.86l0.788-0.086c20.598-2.27 35.588-20.468 33.93-41.122z" fill="#F7A6C1" p-id="5103"></path><path d="M438.32 805.42c-24.66 10.42-48.88 19.74-72.38 27.84-4.14-15.48-7.94-31.68-11.42-48.48 23.7-7.86 48.16-16.98 73.14-27.24 3.22 16.62 6.76 32.62 10.66 47.88zM855.2 538.18c-17.6 17.08-36.92 34.3-57.7 51.46-9.68-9.28-19.94-18.6-30.68-27.92 21.38-16.5 41.5-33.14 60.16-49.72 9.82 8.76 19.26 17.48 28.22 26.18z" fill="#FFC751" p-id="5104"></path><path d="M826.98 512c-18.66 16.58-38.78 33.22-60.16 49.72 10.74 9.32 21 18.64 30.68 27.92 20.78-17.16 40.1-34.38 57.7-51.46-8.96-8.7-18.4-17.42-28.22-26.18z" fill="#F97C15" p-id="5105"></path><path d="M427.66 757.54c-24.98 10.26-49.44 19.38-73.14 27.24 3.48 16.8 7.28 33 11.42 48.48 23.5-8.1 47.72-17.42 72.38-27.84-3.9-15.26-7.44-31.26-10.66-47.88z" fill="#E01152" p-id="5106"></path><path d="M447.44 186.14c-0.22 0.76-0.46 1.52-0.7 2.3-7.68 25.16-14.34 52.8-19.92 82.4a254.94 254.94 0 0 0-86.06 51.26c2.54-19.66 5.5-38.8 8.84-57.3 41.46-13.4 76.18-41.74 97.84-78.66z" fill="#E01152" p-id="5107"></path></svg>
