<svg t="1685887025075" class="icon" viewBox="0 0 1024 1024" version="1.1" xmlns="http://www.w3.org/2000/svg" p-id="5697" width="200" height="200"><path d="M444.576 196.6c24.064 0 36.104 10.616 36.104 31.856 0 21.24-29.024 57.344-87.08 108.32-41.064 41.064-61.6 65.84-61.6 74.336 0 11.328 14.16 16.288 42.48 14.872 28.32-2.832 52.4 0.704 72.216 10.616 19.824 8.496 29.736 34.688 29.736 78.584 0 59.472-32.56 126.728-97.696 201.776-63.72 73.624-134.52 110.44-212.4 110.44-38.224 0-68.664-13.448-91.32-40.352-22.656-26.904-33.984-60.88-33.984-101.952 0-58.048 25.488-125.304 76.464-201.768 52.384-76.464 111.856-143.008 178.4-199.648 66.56-58.056 116.112-87.08 148.68-87.08z m504.408 0c22.656 0 33.984 10.616 33.984 31.856 0 24.08-29.024 60.184-87.08 108.32-39.648 39.648-59.472 64.424-59.472 74.336 0 11.328 14.16 16.288 42.48 14.872 28.32-2.832 51.68 0.704 70.088 10.616 19.824 8.496 29.736 34.688 29.736 78.584 0 59.472-32.568 126.728-97.704 201.776-65.128 73.624-135.216 110.44-210.264 110.44-38.232 0-69.376-13.448-93.448-40.352-22.656-26.904-33.984-60.88-33.984-101.952 0-58.048 26.192-125.304 78.584-201.768 52.392-77.88 111.856-145.136 178.408-201.768 66.552-56.64 116.104-84.96 148.672-84.96z" fill="#191B2F" p-id="5698"></path></svg>
