<svg t="1685887070337" class="icon" viewBox="0 0 1024 1024" version="1.1" xmlns="http://www.w3.org/2000/svg" p-id="5997" width="200" height="200"><path d="M928 64H96a32 32 0 0 0-32 32v192a32 32 0 0 0 32 32h832a32 32 0 0 0 32-32V96a32 32 0 0 0-32-32zM224 224H160V160h64z m304 16h-32v-32h32z m0-64h-32v-32h32z m64 64h-32v-32h32z m0-64h-32v-32h32z m64 64h-32v-32h32z m0-64h-32v-32h32z m64 64h-32v-32h32z m0-64h-32v-32h32z m64 64h-32v-32h32z m0-64h-32v-32h32z m64 64h-32v-32h32z m0-64h-32v-32h32zM928 384H96a32 32 0 0 0-32 32v192a32 32 0 0 0 32 32h832a32 32 0 0 0 32-32v-192a32 32 0 0 0-32-32zM224 544H160v-64h64z m304 16h-32v-32h32z m0-64h-32v-32h32z m64 64h-32v-32h32z m0-64h-32v-32h32z m64 64h-32v-32h32z m0-64h-32v-32h32z m64 64h-32v-32h32z m0-64h-32v-32h32z m64 64h-32v-32h32z m0-64h-32v-32h32z m64 64h-32v-32h32z m0-64h-32v-32h32zM928 704H96a32 32 0 0 0-32 32v192a32 32 0 0 0 32 32h832a32 32 0 0 0 32-32v-192a32 32 0 0 0-32-32zM224 864H160v-64h64z m304 16h-32v-32h32z m0-64h-32v-32h32z m64 64h-32v-32h32z m0-64h-32v-32h32z m64 64h-32v-32h32z m0-64h-32v-32h32z m64 64h-32v-32h32z m0-64h-32v-32h32z m64 64h-32v-32h32z m0-64h-32v-32h32z m64 64h-32v-32h32z m0-64h-32v-32h32z" fill="" p-id="5998"></path></svg>
